<svg width="18" height="18" viewBox="0 0 18 18" fill="none" xmlns="http://www.w3.org/2000/svg">
<path d="M16.5 7.07692L16.5 5.25L14.3077 5.25L14.3077 7.07692L16.5 7.07692Z" fill="#3B2164"/>
<path d="M6.26924 9.18454L6.26924 11.2236L8.33975 11.2236L8.33975 13.2885L10.4103 13.2885L10.4103 11.2236L12.4808 11.2236L12.4808 9.18454L10.4103 9.18454L10.4103 11.2236L8.33975 11.2236L8.33975 9.18454L6.26924 9.18454Z" fill="#3B2164"/>
<path d="M14.3077 9.26923L14.3077 7.07692L12.4808 7.07692L12.4808 9.26923L14.3077 9.26923Z" fill="#3B2164"/>
<path d="M6.26923 9.26923L6.26923 7.07692L4.07692 7.07692L4.07692 9.26923L6.26923 9.26923Z" fill="#3B2164"/>
<path d="M4.0769 7.07692L4.0769 5.25L2.24998 5.25L2.24998 7.07692L4.0769 7.07692Z" fill="#3B2164"/>
</svg>
